<?xml version="1.0" encoding="UTF-8" standalone="no"?>
<!DOCTYPE svg PUBLIC "-//W3C//DTD SVG 1.1//EN" "http://www.w3.org/Graphics/SVG/1.1/DTD/svg11.dtd">
<svg width="100%" height="100%" viewBox="0 0 1000 1000" version="1.1" xmlns="http://www.w3.org/2000/svg" xmlns:xlink="http://www.w3.org/1999/xlink" xml:space="preserve" xmlns:serif="http://www.serif.com/" style="fill-rule:evenodd;clip-rule:evenodd;stroke-linejoin:round;stroke-miterlimit:2;">
    <g transform="matrix(1,0,0,1,-7651.96,-2991.93)">
        <g id="square-logo-pink-yellow-no-bg" transform="matrix(0.637933,0,0,0.530925,10926.5,2825.04)">
            <rect x="-5133.08" y="314.333" width="1567.56" height="1883.51" style="fill:none;"/>
            <g transform="matrix(1.0163,1.22114,0.901458,-1.08315,-5661.91,1004.15)">
                <g transform="matrix(0.890579,1.00404,0.890579,-1.00404,-14649.4,16766.9)">
                    <path d="M623.471,16713.7L772.868,16564.3C775.786,16561.4 779.14,16559.3 782.93,16558C786.72,16556.7 790.632,16556.2 794.667,16556.5C798.702,16556.7 802.68,16557.7 806.601,16559.5C810.521,16561.3 814.127,16563.8 817.416,16567.1C820.706,16570.4 823.241,16574 825.023,16577.9C826.804,16581.8 827.815,16585.8 828.057,16589.9C828.298,16593.9 827.758,16597.8 826.435,16601.5C825.113,16605.2 822.992,16608.6 820.074,16611.5L670.677,16760.9L717.884,16808.1L867.281,16658.7C870.199,16655.8 873.525,16653.7 877.26,16652.3C880.995,16651 884.88,16650.5 888.915,16650.7C892.95,16651 896.928,16652 900.849,16653.8C904.77,16655.5 908.375,16658.1 911.665,16661.4C914.954,16664.6 917.49,16668.3 919.271,16672.2C921.052,16676.1 922.063,16680.1 922.305,16684.1C922.547,16688.1 922.006,16692 920.683,16695.8C919.361,16699.5 917.241,16702.8 914.323,16705.7L764.926,16855.1L812.132,16902.3L961.529,16752.9C970.185,16744.3 976.495,16734.3 980.456,16723C984.418,16711.7 986.037,16700 985.312,16687.9C984.587,16675.8 981.55,16663.8 976.2,16651.9C970.85,16640.1 963.296,16629.2 953.537,16619.5C944.764,16610.7 934.935,16603.7 924.048,16598.3C913.162,16593 901.858,16589.7 890.136,16588.5C888.919,16576.8 885.666,16565.5 880.378,16554.6C875.091,16543.8 868.061,16534 859.288,16525.2C849.529,16515.5 838.716,16507.9 826.85,16502.6C814.984,16497.2 802.998,16494.2 790.894,16493.5C778.789,16492.7 767.082,16494.4 755.774,16498.3C744.465,16502.3 734.482,16508.6 725.826,16517.2L576.429,16666.6L576.529,16666.7L427.132,16816.1C424.214,16819.1 420.86,16821.2 417.07,16822.4C413.28,16823.7 409.368,16824.2 405.333,16824C401.298,16823.7 397.32,16822.7 393.399,16820.9C389.479,16819.1 385.873,16816.6 382.584,16813.3C379.294,16810 376.759,16806.4 374.977,16802.5C373.196,16798.6 372.185,16794.6 371.943,16790.6C371.702,16786.5 372.242,16782.6 373.565,16778.9C374.887,16775.2 377.008,16771.9 379.926,16768.9L529.323,16619.5L482.116,16572.3L332.719,16721.7C329.801,16724.6 326.475,16726.8 322.74,16728.1C319.005,16729.4 315.12,16730 311.085,16729.7C307.05,16729.5 303.072,16728.5 299.151,16726.7C295.23,16724.9 291.625,16722.4 288.335,16719.1C285.046,16715.8 282.51,16712.2 280.729,16708.3C278.948,16704.3 277.937,16700.4 277.695,16696.3C277.453,16692.3 277.994,16688.4 279.317,16684.7C280.639,16680.9 282.759,16677.6 285.677,16674.7L435.074,16525.3L387.868,16478.1L238.471,16627.5C229.815,16636.1 223.505,16646.1 219.544,16657.4C215.582,16668.7 213.963,16680.4 214.688,16692.5C215.413,16704.7 218.45,16716.6 223.8,16728.5C229.15,16740.4 236.704,16751.2 246.463,16760.9C255.236,16769.7 265.065,16776.8 275.952,16782.1C286.838,16787.5 298.142,16790.7 309.864,16792C311.081,16803.7 314.334,16815 319.622,16825.8C324.909,16836.6 331.939,16846.4 340.712,16855.2C350.471,16864.9 361.284,16872.5 373.15,16877.9C385.016,16883.2 397.002,16886.2 409.106,16887C421.211,16887.7 432.918,16886.1 444.226,16882.1C455.535,16878.1 465.518,16871.8 474.174,16863.2L623.571,16713.8" style="fill:rgb(255,223,61);"/>
                </g>
                <g transform="matrix(0.890579,1.00404,0.890579,-1.00404,-14649.4,16766.9)">
                    <path d="M623.571,16713.8L772.968,16564.4C781.624,16555.7 787.934,16545.7 791.895,16534.4C795.857,16523.1 797.475,16511.4 796.751,16499.3C796.026,16487.2 792.988,16475.2 787.639,16463.4C782.289,16451.5 774.735,16440.7 764.976,16430.9C756.203,16422.2 746.374,16415.1 735.487,16409.8C724.601,16404.4 713.297,16401.1 701.575,16399.9C700.357,16388.2 697.105,16376.9 691.817,16366.1C686.53,16355.3 679.5,16345.5 670.727,16336.7C660.968,16326.9 650.155,16319.4 638.289,16314C626.423,16308.7 614.437,16305.6 602.333,16304.9C590.228,16304.2 578.521,16305.8 567.213,16309.8C555.904,16313.7 545.921,16320 537.265,16328.7L387.868,16478.1L434.91,16525.1L584.307,16375.7C587.225,16372.8 590.579,16370.7 594.369,16369.4C598.158,16368.2 602.071,16367.7 606.106,16367.9C610.141,16368.2 614.119,16369.2 618.039,16370.9C621.96,16372.7 625.566,16375.3 628.855,16378.6C632.145,16381.8 634.68,16385.4 636.461,16389.4C638.243,16393.3 639.254,16397.3 639.496,16401.3C639.737,16405.3 639.197,16409.2 637.874,16413C636.551,16416.7 634.431,16420 631.513,16422.9L482.116,16572.3L529.323,16619.5L678.72,16470.1C681.638,16467.2 684.964,16465.1 688.699,16463.8C692.434,16462.5 696.319,16461.9 700.354,16462.2C704.389,16462.4 708.367,16463.4 712.288,16465.2C716.209,16467 719.814,16469.5 723.104,16472.8C726.393,16476.1 728.929,16479.7 730.71,16483.6C732.491,16487.5 733.502,16491.5 733.744,16495.5C733.986,16499.6 733.445,16503.5 732.122,16507.2C730.8,16510.9 728.679,16514.3 725.762,16517.2L576.365,16666.6L576.429,16666.6L427.032,16816C418.376,16824.7 412.066,16834.7 408.105,16846C404.143,16857.3 402.525,16869 403.249,16881.1C403.974,16893.2 407.012,16905.2 412.361,16917.1C417.711,16928.9 425.265,16939.7 435.024,16949.5C443.797,16958.3 453.626,16965.3 464.513,16970.7C475.399,16976 486.703,16979.3 498.425,16980.5C499.643,16992.2 502.895,17003.5 508.183,17014.3C513.47,17025.2 520.5,17035 529.273,17043.8C539.032,17053.5 549.845,17061.1 561.711,17066.4C573.577,17071.8 585.563,17074.8 597.667,17075.5C609.772,17076.3 621.479,17074.6 632.787,17070.7C644.096,17066.7 654.079,17060.4 662.735,17051.7L812.132,16902.3L765.09,16855.3L615.693,17004.7C612.775,17007.6 609.421,17009.7 605.631,17011C601.842,17012.2 597.929,17012.8 593.894,17012.5C589.859,17012.3 585.881,17011.3 581.961,17009.5C578.04,17007.7 574.434,17005.2 571.145,17001.9C567.855,16998.6 565.32,16995 563.539,16991.1C561.757,16987.1 560.746,16983.2 560.504,16979.1C560.263,16975.1 560.803,16971.2 562.126,16967.5C563.449,16963.7 565.569,16960.4 568.487,16957.5L717.884,16808.1L670.677,16760.9L521.28,16910.3C518.362,16913.2 515.036,16915.3 511.301,16916.7C507.566,16918 503.681,16918.5 499.646,16918.3C495.611,16918 491.633,16917 487.712,16915.2C483.791,16913.5 480.186,16910.9 476.896,16907.6C473.607,16904.3 471.071,16900.7 469.29,16896.8C467.509,16892.9 466.498,16888.9 466.256,16884.9C466.014,16880.8 466.555,16877 467.878,16873.2C469.2,16869.5 471.321,16866.2 474.238,16863.2L623.635,16713.8" style="fill:rgb(255,138,196);"/>
                </g>
            </g>
        </g>
    </g>
</svg>
